<svg width="60" height="60" viewBox="0 0 60 60" fill="none" xmlns="http://www.w3.org/2000/svg">
<path fill-rule="evenodd" clip-rule="evenodd" d="M3.75 30C3.75 36.9619 6.51562 43.6387 11.4384 48.5616C16.3613 53.4844 23.0381 56.25 30 56.25C36.9619 56.25 43.6387 53.4844 48.5616 48.5616C53.4844 43.6387 56.25 36.9619 56.25 30C56.25 23.0381 53.4844 16.3613 48.5616 11.4384C43.6387 6.51562 36.9619 3.75 30 3.75C23.0381 3.75 16.3613 6.51562 11.4384 11.4384C6.51562 16.3613 3.75 23.0381 3.75 30V30ZM60 30C60 37.9565 56.8393 45.5871 51.2132 51.2132C45.5871 56.8393 37.9565 60 30 60C22.0435 60 14.4129 56.8393 8.7868 51.2132C3.16071 45.5871 0 37.9565 0 30C0 22.0435 3.16071 14.4129 8.7868 8.7868C14.4129 3.16071 22.0435 0 30 0C37.9565 0 45.5871 3.16071 51.2132 8.7868C56.8393 14.4129 60 22.0435 60 30V30ZM43.125 28.125C43.6223 28.125 44.0992 28.3225 44.4508 28.6742C44.8025 29.0258 45 29.5027 45 30C45 30.4973 44.8025 30.9742 44.4508 31.3258C44.0992 31.6775 43.6223 31.875 43.125 31.875H21.4012L29.4525 39.9225C29.6268 40.0968 29.7651 40.3038 29.8595 40.5316C29.9538 40.7593 30.0024 41.0035 30.0024 41.25C30.0024 41.4965 29.9538 41.7407 29.8595 41.9684C29.7651 42.1962 29.6268 42.4032 29.4525 42.5775C29.2782 42.7518 29.0712 42.8901 28.8434 42.9845C28.6157 43.0788 28.3715 43.1274 28.125 43.1274C27.8785 43.1274 27.6343 43.0788 27.4066 42.9845C27.1788 42.8901 26.9718 42.7518 26.7975 42.5775L15.5475 31.3275C15.3729 31.1533 15.2344 30.9464 15.1398 30.7186C15.0453 30.4908 14.9966 30.2466 14.9966 30C14.9966 29.7534 15.0453 29.5092 15.1398 29.2814C15.2344 29.0536 15.3729 28.8467 15.5475 28.6725L26.7975 17.4225C27.1496 17.0704 27.6271 16.8726 28.125 16.8726C28.6229 16.8726 29.1004 17.0704 29.4525 17.4225C29.8046 17.7746 30.0024 18.2521 30.0024 18.75C30.0024 19.2479 29.8046 19.7254 29.4525 20.0775L21.4012 28.125H43.125Z" fill="black"/>
</svg>
